<?xml version="1.0" encoding="UTF-8" standalone="no"?>
<svg
   xml:space="preserve"
   width="17.595819"
   height="21.61165"
   version="1.1"
   id="svg4"
   xmlns="http://www.w3.org/2000/svg"
   xmlns:svg="http://www.w3.org/2000/svg"><defs
   id="defs8" />
  <path
   d="m 11.97622,3.44524 c 0.67219,-0.79755 1.1477,-1.90418 1.1477,-3.0108 0,-0.15347 -0.013,-0.30908 -0.0411,-0.43444 C 11.98917,0.0411 10.68801,0.72838 9.90343,1.63833 9.28744,2.33862 8.71251,3.44524 8.71251,4.567 c 0,0.16859 0.0281,0.33718 0.0411,0.39121 0.0691,0.013 0.18156,0.0281 0.29396,0.0281 0.98126,0 2.21541,-0.65707 2.92866,-1.54107 z"
   id="path293"
   style="stroke-width:0.999994" /><path
   d="m 17.03385,7.36815 c -0.12536,0.0973 -2.3386,1.34438 -2.3386,4.11743 0,3.20749 2.81627,4.34222 2.90057,4.37032 -0.013,0.0691 -0.44741,1.55403 -1.48487,3.067 -0.92508,1.33141 -1.89121,2.66065 -3.36095,2.66065 -1.46974,0 -1.84798,-0.85374 -3.54467,-0.85374 -1.65345,0 -2.24135,0.88184 -3.58573,0.88184 -1.34438,0 -2.28241,-1.23198 -3.36096,-2.74495 C 1.00937,17.09004 0,14.32996 0,11.71036 0,7.50864 2.73199,5.28025 5.42075,5.28025 c 1.42868,0 2.61959,0.93805 3.51657,0.93805 0.85375,0 2.18515,-0.99424 3.81051,-0.99424 0.616,0 2.82926,0.0562 4.28602,2.14409 z"
   id="path2"
   style="stroke-width:0.999994" />
</svg>
