<svg
  xmlns="http://www.w3.org/2000/svg"
  viewBox="0 0 24 24"
  fill="current"
  className="w-6 h-6"
>
  <path d="M7 4h-2V2h-2v2h-2v2h2l3.6 7.59-1.35 2.44C4.52 18.37 5.48 20 7 20h12v-2H7.42c-.13 0-.25-.11-.33-.27l.03-.06.97-1.77h7.68c.75 0 1.41-.41 1.75-1.03l3.58-6.49-1.46-.83-3.58 6.48H8.53l-1.1-2h10.25c.75 0 1.41-.41 1.75-1.03l3.58-6.49-1.46-.83-3.58 6.48H7.42L7 6H5V4h2m2.35 15c-.83 0-1.5.67-1.5 1.5s.67 1.5 1.5 1.5 1.5-.67 1.5-1.5-.67-1.5-1.5-1.5m10 0c-.83 0-1.5.67-1.5 1.5s.67 1.5 1.5 1.5 1.5-.67 1.5-1.5-.67-1.5-1.5-1.5z" />
</svg>
