<svg
  xmlns="http://www.w3.org/2000/svg"
  viewBox="0 0 24 24"
  fill="currentColor"
  className="w-6 h-6"
>
  <path d="M17.65 3.35a2.99 2.99 0 00-4.24 0c-.59.58-.88 1.36-.88 2.12s.29 1.54.88 2.12l-3.29 3.3a3.05 3.05 0 00-1.19-.3c-.76 0-1.54.29-2.12.88a2.99 2.99 0 000 4.24 2.99 2.99 0 004.24 0c.59-.58.88-1.36.88-2.12s-.29-1.54-.88-2.12l3.29-3.3c.58.59 1.36.88 2.12.88s1.54-.29 2.12-.88a2.99 2.99 0 000-4.24zm-3.54 1.54c.39-.39.89-.58 1.41-.58s1.02.19 1.41.58c.39.39.58.89.58 1.41s-.19 1.02-.58 1.41c-.39.39-.89.58-1.41.58s-1.02-.19-1.41-.58a1.97 1.97 0 01-.58-1.41c0-.53.2-1.03.58-1.41zm-7.18 7.16c.39-.39.89-.58 1.41-.58s1.02.19 1.41.58c.39.39.58.89.58 1.41s-.19 1.02-.58 1.41a1.97 1.97 0 01-1.41.58c-.53 0-1.03-.2-1.41-.58a1.97 1.97 0 01-.58-1.41c0-.53.2-1.03.58-1.41z"/>
</svg>
